<?xml version="1.0" encoding="utf-8"?>
<!-- Generator: Adobe Illustrator 26.0.1, SVG Export Plug-In . SVG Version: 6.00 Build 0)  -->
<svg version="1.1" id="Capa_1" xmlns="http://www.w3.org/2000/svg" xmlns:xlink="http://www.w3.org/1999/xlink" x="0px" y="0px"
	 viewBox="0 0 304 270" style="enable-background:new 0 0 304 270;" xml:space="preserve">
<style type="text/css">
	.st0{fill-rule:evenodd;clip-rule:evenodd;fill:#B1B4C5;}
	.st1{fill-rule:evenodd;clip-rule:evenodd;fill:url(#SVGID_1_);}
	.st2{fill-rule:evenodd;clip-rule:evenodd;fill:#E1E4ED;}
	.st3{fill-rule:evenodd;clip-rule:evenodd;fill:url(#SVGID_00000176004952172436486720000003050889175227966140_);}
	.st4{fill-rule:evenodd;clip-rule:evenodd;fill:url(#SVGID_00000179645340319773818510000014783027303440828093_);}
	.st5{fill:#8A90AC;}
	.st6{fill:#B1B4C5;}
	.st7{font-family:'BarlowSemiCondensed-SemiBold';}
	.st8{font-size:13px;}
</style>
<g>
	<ellipse class="st0" cx="53.2" cy="54.8" rx="53.2" ry="54.8"/>
	
		<linearGradient id="SVGID_1_" gradientUnits="userSpaceOnUse" x1="-524.5178" y1="517.6329" x2="-524.5178" y2="516.6329" gradientTransform="matrix(106.378 0 0 -104.77 55850.3398 54232.3984)">
		<stop  offset="0" style="stop-color:#FFFFFF;stop-opacity:9.700000e-02"/>
		<stop  offset="1" style="stop-color:#FFFFFF;stop-opacity:0"/>
	</linearGradient>
	<ellipse class="st1" cx="53.2" cy="52.4" rx="53.2" ry="52.4"/>
	<g transform="translate(12.357 12.421)">
		<ellipse class="st2" cx="40.8" cy="41" rx="40.8" ry="41"/>
		<path class="st2" d="M0,0"/>
	</g>
	<g transform="translate(196)">
		<ellipse class="st0" cx="53.7" cy="54.8" rx="53.7" ry="54.8"/>
		
			<linearGradient id="SVGID_00000171681109877329684340000003230366461698194095_" gradientUnits="userSpaceOnUse" x1="-720.5639" y1="517.6329" x2="-720.5639" y2="516.6329" gradientTransform="matrix(107.372 0 0 -104.77 77422.0703 54232.3984)">
			<stop  offset="0" style="stop-color:#FFFFFF;stop-opacity:9.700000e-02"/>
			<stop  offset="1" style="stop-color:#FFFFFF;stop-opacity:0"/>
		</linearGradient>
		
			<ellipse style="fill-rule:evenodd;clip-rule:evenodd;fill:url(#SVGID_00000171681109877329684340000003230366461698194095_);" cx="53.7" cy="52.4" rx="53.7" ry="52.4"/>
		<g transform="translate(12.473 12.421)">
			<ellipse class="st2" cx="41.2" cy="41" rx="41.2" ry="41"/>
			<path class="st2" d="M0,0"/>
		</g>
	</g>
	<g transform="translate(98 160)">
		<ellipse class="st0" cx="53.7" cy="54.8" rx="53.7" ry="54.8"/>
		
			<linearGradient id="SVGID_00000037659027230954600270000006200448301442115216_" gradientUnits="userSpaceOnUse" x1="-622.5639" y1="357.6329" x2="-622.5639" y2="356.6329" gradientTransform="matrix(107.372 0 0 -104.77 66899.6172 37469.1992)">
			<stop  offset="0" style="stop-color:#FFFFFF;stop-opacity:9.700000e-02"/>
			<stop  offset="1" style="stop-color:#FFFFFF;stop-opacity:0"/>
		</linearGradient>
		
			<ellipse style="fill-rule:evenodd;clip-rule:evenodd;fill:url(#SVGID_00000037659027230954600270000006200448301442115216_);" cx="53.7" cy="52.4" rx="53.7" ry="52.4"/>
		<g transform="translate(12.473 12.421)">
			<ellipse class="st2" cx="41.2" cy="41" rx="41.2" ry="41"/>
			<path class="st5" d="M57.2,35.2c-0.5-6-7.2-5.4-7.2-5.4c-2.8-5-7.3-1.4-7.3-1.4C39.3,23.5,35,28,35,28c-7.4-0.8-7.1,5.2-7.1,5.2
				c-0.2,1.9,1,7.8,1,7.8c-1.1-3.4-3.5-0.6-3.5-0.6c-2.9,4.5-0.7,7-0.7,7c3.9,4.6,12.4,10.2,12.4,10.2c3,1.7,1.8,3.3,1.8,3.3l18.4-3
				l0.4-3.5C60.5,46,57.2,35.1,57.2,35.2L57.2,35.2z"/>
		</g>
	</g>
	<text transform="matrix(1 0 0 1 134 31)" class="st6 st7 st8">BEATS</text>
	<text transform="matrix(1 0 0 1 40 147)" class="st6 st7 st8">BEATS</text>
	<text transform="matrix(1 0 0 1 235 147)" class="st6 st7 st8">BEATS</text>
	<g transform="matrix(-1 0 0 1 177 39)">
		<path class="st0" d="M2,10h46c1.1,0,2,0.9,2,2l0,0c0,1.1-0.9,2-2,2H2c-1.1,0-2-0.9-2-2l0,0C0,10.9,0.9,10,2,10z"/>
		<path class="st0" d="M0,0"/>
		<path class="st0" d="M0,0"/>
	</g>
	<g transform="scale(1 -1) rotate(-55 -82.574 -131.195)">
		<path class="st0" d="M2,10l46,0c1.1,0,2,0.9,2,2l0,0c0,1.1-0.9,2-2,2L2,14c-1.1,0-2-0.9-2-2l0,0C0,10.9,0.9,10,2,10z"/>
		<path class="st0" d="M0,0"/>
		<path class="st0" d="M0,0"/>
	</g>
	<g transform="rotate(-55 240.022 -103.651)">
		<path class="st0" d="M2,10l46,0c1.1,0,2,0.9,2,2l0,0c0,1.1-0.9,2-2,2L2,14c-1.1,0-2-0.9-2-2l0,0C0,10.9,0.9,10,2,10z"/>
		<path class="st0" d="M0,0"/>
		<path class="st0" d="M0,0"/>
	</g>
</g>
</svg>
