<?xml version="1.0" encoding="utf-8"?>
<!-- Generator: Adobe Illustrator 26.0.1, SVG Export Plug-In . SVG Version: 6.00 Build 0)  -->
<svg version="1.1" id="Capa_1" xmlns="http://www.w3.org/2000/svg" xmlns:xlink="http://www.w3.org/1999/xlink" x="0px" y="0px"
	 viewBox="0 0 340 330" style="enable-background:new 0 0 340 330;" xml:space="preserve">
<style type="text/css">
	.st0{fill-rule:evenodd;clip-rule:evenodd;fill:#B1B4C5;}
	.st1{fill-rule:evenodd;clip-rule:evenodd;fill:url(#SVGID_1_);}
	.st2{fill-rule:evenodd;clip-rule:evenodd;fill:#E1E4ED;}
	.st3{fill-rule:evenodd;clip-rule:evenodd;fill:url(#SVGID_00000022523081927414715640000009524239913426626471_);}
	.st4{fill-rule:evenodd;clip-rule:evenodd;fill:url(#SVGID_00000011017424683129925360000012974713051850207678_);}
	.st5{fill-rule:evenodd;clip-rule:evenodd;fill:url(#SVGID_00000137839922326953714120000014635306623434262919_);}
	.st6{fill:#8A90AC;}
	.st7{fill-rule:evenodd;clip-rule:evenodd;fill:url(#SVGID_00000029032620972276837140000003439404647624349835_);}
	.st8{fill:#B1B4C5;}
	.st9{font-family:'BarlowSemiCondensed-SemiBold';}
	.st10{font-size:6px;}
	.st11{font-size:11px;}
</style>
<g>
	<g transform="translate(233 92)">
		<ellipse class="st0" cx="51.5" cy="50.2" rx="51.5" ry="50.2"/>
		
			<linearGradient id="SVGID_1_" gradientUnits="userSpaceOnUse" x1="-739.5291" y1="455.8275" x2="-739.5291" y2="454.8275" gradientTransform="matrix(103 0 0 -100.344 76223 45739.5547)">
			<stop  offset="0" style="stop-color:#FFFFFF;stop-opacity:9.700000e-02"/>
			<stop  offset="1" style="stop-color:#FFFFFF;stop-opacity:0"/>
		</linearGradient>
		<ellipse class="st1" cx="51.5" cy="50.2" rx="51.5" ry="50.2"/>
		<g transform="translate(11.965 11.897)">
			<ellipse class="st2" cx="39.5" cy="39.3" rx="39.5" ry="39.3"/>
			<path class="st2" d="M0,0"/>
		</g>
	</g>
	<g transform="translate(0 92)">
		<ellipse class="st0" cx="51.5" cy="52.5" rx="51.5" ry="52.5"/>
		
			<linearGradient id="SVGID_00000072973815611375837900000018028953198712379299_" gradientUnits="userSpaceOnUse" x1="-506.5291" y1="455.8275" x2="-506.5291" y2="454.8275" gradientTransform="matrix(103 0 0 -100.344 52224 45739.5547)">
			<stop  offset="0" style="stop-color:#FFFFFF;stop-opacity:9.700000e-02"/>
			<stop  offset="1" style="stop-color:#FFFFFF;stop-opacity:0"/>
		</linearGradient>
		
			<ellipse style="fill-rule:evenodd;clip-rule:evenodd;fill:url(#SVGID_00000072973815611375837900000018028953198712379299_);" cx="51.5" cy="50.2" rx="51.5" ry="50.2"/>
		<g transform="translate(11.965 11.897)">
			<ellipse class="st2" cx="39.5" cy="39.3" rx="39.5" ry="39.3"/>
			<path class="st2" d="M0,0"/>
		</g>
	</g>
	<g transform="translate(117)">
		<ellipse class="st0" cx="51.5" cy="52.5" rx="51.5" ry="52.5"/>
		
			<linearGradient id="SVGID_00000038392894478249527070000004898215760990115734_" gradientUnits="userSpaceOnUse" x1="-623.5291" y1="547.8275" x2="-623.5291" y2="546.8275" gradientTransform="matrix(103 0 0 -100.344 64275 54971.1992)">
			<stop  offset="0" style="stop-color:#FFFFFF;stop-opacity:9.700000e-02"/>
			<stop  offset="1" style="stop-color:#FFFFFF;stop-opacity:0"/>
		</linearGradient>
		
			<ellipse style="fill-rule:evenodd;clip-rule:evenodd;fill:url(#SVGID_00000038392894478249527070000004898215760990115734_);" cx="51.5" cy="50.2" rx="51.5" ry="50.2"/>
		<g transform="translate(11.965 11.897)">
			<ellipse class="st2" cx="39.5" cy="39.3" rx="39.5" ry="39.3"/>
			<path class="st2" d="M0,0"/>
		</g>
	</g>
	<g transform="translate(187 225)">
		<ellipse class="st0" cx="51.5" cy="52.5" rx="51.5" ry="52.5"/>
		
			<linearGradient id="SVGID_00000011014737373063900900000016892249172585985944_" gradientUnits="userSpaceOnUse" x1="-693.5291" y1="322.8275" x2="-693.5291" y2="321.8275" gradientTransform="matrix(103 0 0 -100.344 71485 32393.8008)">
			<stop  offset="0" style="stop-color:#FFFFFF;stop-opacity:9.700000e-02"/>
			<stop  offset="1" style="stop-color:#FFFFFF;stop-opacity:0"/>
		</linearGradient>
		
			<ellipse style="fill-rule:evenodd;clip-rule:evenodd;fill:url(#SVGID_00000011014737373063900900000016892249172585985944_);" cx="51.5" cy="50.2" rx="51.5" ry="50.2"/>
		<g transform="translate(11.965 11.897)">
			<ellipse class="st2" cx="39.5" cy="39.3" rx="39.5" ry="39.3"/>
			<path class="st6" d="M54.8,33.7c-0.5-5.7-6.9-5.2-6.9-5.2c-2.7-4.8-7-1.3-7-1.3c-3.3-4.7-7.4-0.3-7.4-0.3c-7.1-0.8-6.8,5-6.8,5
				c-0.2,1.8,1,7.5,1,7.5c-1-3.3-3.3-0.6-3.3-0.6c-2.8,4.3-0.7,6.7-0.7,6.7c3.8,4.4,11.9,9.8,11.9,9.8c2.9,1.7,1.7,3.2,1.7,3.2
				L55,55.5l0.4-3.3C58.1,44,54.9,33.7,54.8,33.7L54.8,33.7z"/>
		</g>
	</g>
	<g transform="translate(46 225)">
		<ellipse class="st0" cx="51.5" cy="52.5" rx="51.5" ry="52.5"/>
		
			<linearGradient id="SVGID_00000067211899987098392770000012854842354817153186_" gradientUnits="userSpaceOnUse" x1="-552.5291" y1="322.8275" x2="-552.5291" y2="321.8275" gradientTransform="matrix(103 0 0 -100.344 56962 32393.8008)">
			<stop  offset="0" style="stop-color:#FFFFFF;stop-opacity:9.700000e-02"/>
			<stop  offset="1" style="stop-color:#FFFFFF;stop-opacity:0"/>
		</linearGradient>
		
			<ellipse style="fill-rule:evenodd;clip-rule:evenodd;fill:url(#SVGID_00000067211899987098392770000012854842354817153186_);" cx="51.5" cy="50.2" rx="51.5" ry="50.2"/>
		<g transform="translate(11.965 11.897)">
			<ellipse class="st2" cx="39.5" cy="39.3" rx="39.5" ry="39.3"/>
			<path class="st2" d="M0,0"/>
		</g>
	</g>
	<g transform="rotate(-40 152.162 -62.778)">
		<path class="st0" d="M1.3,6.7l30,0c0.7,0,1.3,0.6,1.3,1.3v0c0,0.7-0.6,1.3-1.3,1.3l-30,0C0.6,9.3,0,8.7,0,8l0,0
			C0,7.3,0.6,6.7,1.3,6.7z"/>
		<path class="st0" d="M0,0"/>
		<path class="st0" d="M0,0"/>
	</g>
	<g transform="scale(1 -1) rotate(-40 11.858 -344.091)">
		<path class="st0" d="M1.3,6.7l30,0c0.7,0,1.3,0.6,1.3,1.3v0c0,0.7-0.6,1.3-1.3,1.3l-30,0C0.6,9.3,0,8.7,0,8l0,0
			C0,7.3,0.6,6.7,1.3,6.7z"/>
		<path class="st0" d="M0,0"/>
		<path class="st0" d="M0,0"/>
	</g>
	<g transform="rotate(127 100.649 180.558)">
		<path class="st0" d="M1.3,6.7l30,0c0.7,0,1.3,0.6,1.3,1.3v0c0,0.7-0.6,1.3-1.3,1.3l-30,0C0.6,9.3,0,8.7,0,8l0,0
			C0,7.3,0.6,6.7,1.3,6.7z"/>
		<path class="st0" d="M0,0"/>
		<path class="st0" d="M0,0"/>
	</g>
	<g transform="matrix(-1 0 0 1 186 297)">
		<path class="st0" d="M1.3,6.7h30c0.7,0,1.3,0.6,1.3,1.3v0c0,0.7-0.6,1.3-1.3,1.3h-30C0.6,9.3,0,8.7,0,8v0C0,7.3,0.6,6.7,1.3,6.7z"
			/>
		<path class="st0" d="M0,0"/>
		<path class="st0" d="M0,0"/>
	</g>
	<g transform="scale(-1 1) rotate(-53 195.597 178.185)">
		<path class="st0" d="M1.3,6.7l30,0c0.7,0,1.3,0.6,1.3,1.3v0c0,0.7-0.6,1.3-1.3,1.3l-30,0C0.6,9.3,0,8.7,0,8l0,0
			C0,7.3,0.6,6.7,1.3,6.7z"/>
		<path class="st0" d="M0,0"/>
		<path class="st0" d="M0,0"/>
	</g>
	<g>
		<g transform="matrix(-1 0 0 1 212 131)">
			<path class="st0" d="M2,6.7h82.3c0.7,0,1.3,0.6,1.3,1.3v0c0,0.7-0.6,1.3-1.3,1.3H2C1.3,9.3,0.7,8.7,0.7,8v0
				C0.7,7.3,1.3,6.7,2,6.7z"/>
			<path class="st0" d="M0,0"/>
			<path class="st0" d="M0,0"/>
		</g>
		<text transform="matrix(1 0 0 1 159 151)" class="st8 st9 st10">BEATS</text>
		<g transform="rotate(40 -169.505 247.617)">
			<path class="st0" d="M2,6.7l82.3,0c0.7,0,1.3,0.6,1.3,1.3v0c0,0.7-0.6,1.3-1.3,1.3L2,9.3C1.3,9.3,0.7,8.7,0.7,8v0
				C0.7,7.3,1.3,6.7,2,6.7z"/>
			<path class="st0" d="M0,0"/>
			<path class="st0" d="M0,0"/>
		</g>
		<text transform="matrix(0.766 0.6428 -0.6428 0.766 146.3201 189.3849)" class="st8 st9 st10">BEATS</text>
		<g transform="rotate(-40 381.505 -93.07)">
			<path class="st0" d="M2,6.7l82.3,0c0.7,0,1.3,0.6,1.3,1.3v0c0,0.7-0.6,1.3-1.3,1.3L2,9.3C1.3,9.3,0.7,8.7,0.7,8v0
				C0.7,7.3,1.3,6.7,2,6.7z"/>
			<path class="st0" d="M0,0"/>
			<path class="st0" d="M0,0"/>
		</g>
		<text transform="matrix(0.766 -0.6428 0.6428 0.766 175.8911 200.955)" class="st8 st9 st10">BEATS</text>
		<g>
			<g transform="rotate(-110 176.867 31.934)">
				<path class="st0" d="M2,6.7l82.3,0c0.7,0,1.3,0.6,1.3,1.3v0c0,0.7-0.6,1.3-1.3,1.3L2,9.3C1.3,9.3,0.7,8.7,0.7,8v0
					C0.7,7.3,1.3,6.7,2,6.7z"/>
				<path class="st0" d="M0,0"/>
				<path class="st0" d="M0,0"/>
			</g>
			<text transform="matrix(-0.342 -0.9397 0.9397 -0.342 195.0377 175.2282)" class="st8 st9 st10">BEATS</text>
		</g>
		<g>
			<g transform="rotate(110 35.133 118.76)">
				<path class="st0" d="M2,6.7l82.3,0c0.7,0,1.3,0.6,1.3,1.3v0c0,0.7-0.6,1.3-1.3,1.3L2,9.3C1.3,9.3,0.7,8.7,0.7,8v0
					C0.7,7.3,1.3,6.7,2,6.7z"/>
				<path class="st0" d="M0,0"/>
				<path class="st0" d="M0,0"/>
			</g>
			<g>
				<text transform="matrix(-0.342 0.9397 -0.9397 -0.342 147.4609 157.3735)" class="st8 st9 st10">BEATS</text>
			</g>
		</g>
	</g>
	<text transform="matrix(1 0 0 1 252 64)" class="st8 st9 st11">BEATS</text>
	<text transform="matrix(1 0 0 1 55 64)" class="st8 st9 st11">BEATS</text>
	<text transform="matrix(1 0 0 1 305 225)" class="st8 st9 st11">BEATS</text>
	<text transform="matrix(1 0 0 1 1 225)" class="st8 st9 st11">BEATS</text>
	<text transform="matrix(1 0 0 1 154 328)" class="st8 st9 st11">BEATS</text>
</g>
</svg>
